<svg width="26" height="26" viewBox="0 0 26 26" fill="none" xmlns="http://www.w3.org/2000/svg">
<path d="M14.8215 19.1202C14.6383 19.4274 14.3755 19.6824 14.0592 19.8596C13.7429 20.0369 13.3843 20.1302 13.0194 20.1302C12.6544 20.1302 12.2958 20.0369 11.9795 19.8596C11.6633 19.6824 11.4004 19.4274 11.2173 19.1202" stroke="#5772FF" stroke-width="1.6" stroke-linecap="round" stroke-linejoin="round"/>
<path d="M19.2693 8.98501C19.2693 7.37221 18.6108 5.82546 17.4387 4.68504C16.2666 3.54461 14.6769 2.90393 13.0193 2.90393C11.3617 2.90393 9.77197 3.54461 8.59987 4.68504C7.42777 5.82546 6.76929 7.37221 6.76929 8.98501C6.76929 16.0796 3.64429 18.1066 3.64429 18.1066H22.3943C22.3943 18.1066 19.2693 16.0796 19.2693 8.98501Z" stroke="#5772FF" stroke-width="1.6" stroke-linecap="round" stroke-linejoin="round"/>
</svg>
