<svg width="30" height="31" viewBox="0 0 30 31" fill="none" xmlns="http://www.w3.org/2000/svg">
<path d="M27.5064 15.8423H20.0064L17.5064 19.5923H12.5064L10.0064 15.8423H2.50641" stroke="#545454" stroke-width="2" stroke-linecap="round" stroke-linejoin="round"/>
<path d="M6.81891 7.22979L2.50641 15.8423V23.3423C2.50641 24.0053 2.7698 24.6412 3.23864 25.1101C3.70748 25.5789 4.34337 25.8423 5.00641 25.8423H25.0064C25.6694 25.8423 26.3053 25.5789 26.7742 25.1101C27.243 24.6412 27.5064 24.0053 27.5064 23.3423V15.8423L23.1939 7.22979C22.9869 6.81327 22.6679 6.46275 22.2726 6.21763C21.8773 5.97252 21.4215 5.84253 20.9564 5.84229H9.05641C8.5913 5.84253 8.13549 5.97252 7.74021 6.21763C7.34494 6.46275 7.02588 6.81327 6.81891 7.22979Z" stroke="#545454" stroke-width="2" stroke-linecap="round" stroke-linejoin="round"/>
</svg>
