<svg width="30" height="31" viewBox="0 0 30 31" fill="none" xmlns="http://www.w3.org/2000/svg">
<path d="M17.5064 3.34229H7.50641C6.84337 3.34229 6.20748 3.60568 5.73864 4.07452C5.2698 4.54336 5.00641 5.17924 5.00641 5.84229V25.8423C5.00641 26.5053 5.2698 27.1412 5.73864 27.6101C6.20748 28.0789 6.84337 28.3423 7.50641 28.3423H22.5064C23.1694 28.3423 23.8053 28.0789 24.2742 27.6101C24.743 27.1412 25.0064 26.5053 25.0064 25.8423V10.8423L17.5064 3.34229Z" stroke="#545454" stroke-width="2" stroke-linecap="round" stroke-linejoin="round"/>
<path d="M17.5064 3.34229V10.8423H25.0064" stroke="#545454" stroke-width="2" stroke-linecap="round" stroke-linejoin="round"/>
<path d="M20.0064 17.0923H10.0064" stroke="#545454" stroke-width="2" stroke-linecap="round" stroke-linejoin="round"/>
<path d="M20.0064 22.0923H10.0064" stroke="#545454" stroke-width="2" stroke-linecap="round" stroke-linejoin="round"/>
<path d="M12.5064 12.0923H11.2564H10.0064" stroke="#545454" stroke-width="2" stroke-linecap="round" stroke-linejoin="round"/>
</svg>
