<svg width="17" height="16" viewBox="0 0 17 16" fill="none" xmlns="http://www.w3.org/2000/svg">
<path d="M16.455 7.68408C16.455 11.8419 12.8597 15.2125 8.42463 15.2125C3.98959 15.2125 0.394287 11.8419 0.394287 7.68408C0.394287 3.52624 3.98959 0.15564 8.42463 0.15564C12.8597 0.15564 16.455 3.52624 16.455 7.68408Z" fill="#FF0000"/>
<path d="M9.45456 11.4483H8.22073V6.83615C8.22073 6.68258 8.22247 6.529 8.22596 6.37543C8.22944 6.22185 8.23293 6.07155 8.23642 5.92451C8.24339 5.77747 8.2521 5.63696 8.26256 5.50299C8.18936 5.57815 8.09874 5.65983 7.9907 5.74806C7.88613 5.83628 7.7746 5.92777 7.6561 6.02253L6.77778 6.67931L6.16087 5.94901L8.42986 4.28256H9.45456V11.4483Z" fill="white"/>
</svg>
