<svg width="30" height="31" viewBox="0 0 30 31" fill="none" xmlns="http://www.w3.org/2000/svg">
<path d="M25.0064 9.59229H5.00641C3.6257 9.59229 2.50641 10.7116 2.50641 12.0923V24.5923C2.50641 25.973 3.6257 27.0923 5.00641 27.0923H25.0064C26.3871 27.0923 27.5064 25.973 27.5064 24.5923V12.0923C27.5064 10.7116 26.3871 9.59229 25.0064 9.59229Z" stroke="#545454" stroke-width="2" stroke-linecap="round" stroke-linejoin="round"/>
<path d="M20.0064 27.0923V7.09229C20.0064 6.42924 19.743 5.79336 19.2742 5.32452C18.8053 4.85568 18.1694 4.59229 17.5064 4.59229H12.5064C11.8434 4.59229 11.2075 4.85568 10.7386 5.32452C10.2698 5.79336 10.0064 6.42924 10.0064 7.09229V27.0923" stroke="#545454" stroke-width="2" stroke-linecap="round" stroke-linejoin="round"/>
</svg>
