<svg width="34" height="34" viewBox="0 0 34 34" fill="none" xmlns="http://www.w3.org/2000/svg">
<mask id="mask0_223_274" style="mask-type:alpha" maskUnits="userSpaceOnUse" x="0" y="0" width="34" height="34">
<rect x="0.506409" y="0.842285" width="33" height="33" fill="#D9D9D9"/>
</mask>
<g mask="url(#mask0_223_274)">
<path d="M26.5733 28.3715L19.4893 21.3139C19.2901 21.1235 19.1906 20.8841 19.1906 20.5959C19.1906 20.3078 19.2901 20.0641 19.4893 19.8647C19.6884 19.6656 19.93 19.566 20.2139 19.566C20.4976 19.566 20.7391 19.6656 20.9382 19.8647L28.0091 26.9356C28.1993 27.1258 28.2945 27.3673 28.2945 27.6599C28.2945 27.9526 28.1949 28.1941 27.9957 28.3845C27.8053 28.575 27.5682 28.668 27.2845 28.6637C27.0008 28.6591 26.7637 28.5617 26.5733 28.3715ZM7.20436 25.7906C6.56429 24.7154 6.08568 23.5951 5.76851 22.4298C5.45112 21.2644 5.29242 20.0771 5.29242 18.8678C5.29242 17.1598 5.60936 15.4998 6.24323 13.8876C6.87688 12.2754 7.84591 10.8215 9.15033 9.52607C10.455 8.22142 11.9168 7.24872 13.5359 6.60797C15.155 5.96722 16.8098 5.64685 18.5003 5.64685C19.7183 5.64685 20.9078 5.80898 22.0688 6.13326C23.2295 6.45776 24.3405 6.93992 25.4018 7.57976C25.9623 7.93244 26.2655 8.43569 26.3114 9.08951C26.3572 9.74355 26.1297 10.3209 25.629 10.8217L10.4459 26.0048C9.94542 26.5053 9.3646 26.7349 8.70345 26.6936C8.04253 26.6522 7.54284 26.3511 7.20436 25.7906ZM8.92311 24.5875L11.0966 22.4139C10.73 21.9151 10.3738 21.3959 10.0283 20.8564C9.68268 20.317 9.37239 19.7599 9.09739 19.1851C8.82239 18.6106 8.59288 18.0161 8.40886 17.4017C8.22461 16.7873 8.08745 16.1646 7.99739 15.5334C7.45449 17.0443 7.2699 18.5881 7.44361 20.1648C7.61709 21.7417 8.11025 23.2159 8.92311 24.5875ZM12.6143 20.965L20.5893 12.9209C19.6039 12.1647 18.6061 11.5605 17.5959 11.1084C16.586 10.6562 15.6346 10.3508 14.7418 10.1923C13.8487 10.0337 13.0417 10.0205 12.3207 10.1527C11.5998 10.285 11.0401 10.5502 10.6419 10.9485C10.2433 11.361 9.97796 11.9277 9.84573 12.6487C9.7135 13.3697 9.7245 14.1801 9.87873 15.08C10.033 15.98 10.3361 16.9337 10.7883 17.9411C11.2407 18.9487 11.8493 19.9567 12.6143 20.965ZM24.2808 9.29851C22.8721 8.4593 21.3772 7.95605 19.7959 7.78876C18.2147 7.62124 16.6687 7.8072 15.158 8.34666C15.8121 8.42779 16.4463 8.56483 17.0607 8.75779C17.6749 8.95075 18.2693 9.18129 18.8441 9.44941C19.4188 9.71731 19.9746 10.0239 20.5113 10.3693C21.048 10.7149 21.5658 11.0825 22.0647 11.472L24.2808 9.29851Z" fill="#5772FF"/>
</g>
</svg>
