<svg width="55" height="56" viewBox="0 0 55 56" fill="none" xmlns="http://www.w3.org/2000/svg">
<circle cx="27.8347" cy="28.0098" r="27.0295" fill="#212121"/>
<path d="M21.8588 39.9608C22.7054 39.9608 23.415 39.6744 23.9876 39.1018C24.5603 38.5291 24.8466 37.8195 24.8466 36.973V19.0465C24.8466 18.2 24.5603 17.4904 23.9876 16.9178C23.415 16.3451 22.7054 16.0588 21.8588 16.0588C21.0123 16.0588 20.3027 16.3451 19.7301 16.9178C19.1574 17.4904 18.8711 18.2 18.8711 19.0465V36.973C18.8711 37.8195 19.1574 38.5291 19.7301 39.1018C20.3027 39.6744 21.0123 39.9608 21.8588 39.9608ZM33.8098 39.9608C34.6564 39.9608 35.3659 39.6744 35.9386 39.1018C36.5113 38.5291 36.7976 37.8195 36.7976 36.973V19.0465C36.7976 18.2 36.5113 17.4904 35.9386 16.9178C35.3659 16.3451 34.6564 16.0588 33.8098 16.0588C32.9633 16.0588 32.2537 16.3451 31.6811 16.9178C31.1084 17.4904 30.8221 18.2 30.8221 19.0465V36.973C30.8221 37.8195 31.1084 38.5291 31.6811 39.1018C32.2537 39.6744 32.9633 39.9608 33.8098 39.9608Z" fill="white"/>
</svg>
