<svg width="16" height="14" viewBox="0 0 16 14" fill="none" xmlns="http://www.w3.org/2000/svg">
<path d="M12.6686 13.4738V11.8902C12.6686 11.0502 12.335 10.2446 11.741 9.65066C11.147 9.05671 10.3415 8.72302 9.50148 8.72302H3.16716C2.32718 8.72302 1.5216 9.05671 0.92764 9.65066C0.333682 10.2446 0 11.0502 0 11.8902V13.4738" fill="#666666"/>
<path d="M6.33415 7.13938C8.08333 7.13938 9.50131 5.72139 9.50131 3.97221C9.50131 2.22304 8.08333 0.805054 6.33415 0.805054C4.58498 0.805054 3.16699 2.22304 3.16699 3.97221C3.16699 5.72139 4.58498 7.13938 6.33415 7.13938Z" fill="#666666"/>
<path d="M13.4026 13.4737V11.5257C13.4026 11.0496 13.27 10.5923 13.0049 10.1541C12.7398 9.71578 12.3637 9.33971 11.8767 9.02588C12.4286 9.09081 12.9481 9.20173 13.4351 9.35865C13.922 9.51557 14.3766 9.70766 14.7986 9.93492C15.1882 10.1514 15.4858 10.3921 15.6914 10.6573C15.897 10.9224 15.9999 11.2119 15.9999 11.5257V13.4737H13.4026Z" fill="#666666"/>
<path d="M13.0312 3.98611C13.0256 4.70926 12.7633 5.32634 12.2444 5.83733C11.7255 6.34833 11.1044 6.60104 10.3813 6.59546C10.2607 6.59453 10.1075 6.57966 9.9214 6.55083C9.73535 6.522 9.58219 6.49068 9.46191 6.45688C9.76045 6.10855 9.99081 5.72134 10.153 5.29525C10.3151 4.86916 10.398 4.42602 10.4016 3.96583C10.4051 3.50565 10.3291 3.06128 10.1735 2.63274C10.0179 2.2042 9.79358 1.81348 9.50045 1.46058C9.65427 1.40698 9.80794 1.37256 9.96146 1.3573C10.115 1.34205 10.2684 1.33502 10.4218 1.3362C11.145 1.34178 11.7621 1.60404 12.2731 2.12298C12.7841 2.64192 13.0368 3.26297 13.0312 3.98611Z" fill="#666666"/>
</svg>
