<svg width="14" height="14" viewBox="0 0 14 14" fill="none" xmlns="http://www.w3.org/2000/svg">
<g clip-path="url(#clip0_140_153)">
<path d="M3.65379 13.4469H1.76151C1.42694 13.4469 1.10607 13.314 0.869489 13.0774C0.632909 12.8409 0.5 12.52 0.5 12.1854V7.77012C0.5 7.43555 0.632909 7.11468 0.869489 6.8781C1.10607 6.64152 1.42694 6.50861 1.76151 6.50861H3.65379" fill="#666666"/>
<path d="M8.65407 5.24709V2.72406C8.65407 2.2222 8.45471 1.74089 8.09984 1.38602C7.74497 1.03115 7.26366 0.831787 6.7618 0.831787L4.23877 6.5086V13.4469H11.3537C11.6579 13.4504 11.9532 13.3437 12.185 13.1467C12.4168 12.9496 12.5696 12.6755 12.6152 12.3746L13.4857 6.69783C13.5131 6.51703 13.5009 6.33242 13.4499 6.1568C13.3989 5.98118 13.3104 5.81874 13.1904 5.68074C13.0704 5.54275 12.9218 5.43249 12.755 5.35761C12.5881 5.28273 12.407 5.24502 12.2242 5.24709H8.65407Z" fill="#666666"/>
</g>
<defs>
<clipPath id="clip0_140_153">
<rect width="13" height="12.6152" fill="white" transform="translate(0.5 0.831787)"/>
</clipPath>
</defs>
</svg>
