<svg width="16" height="16" viewBox="0 0 16 16" fill="none" xmlns="http://www.w3.org/2000/svg">
<path d="M13.1798 4.67953H2.80514C2.08891 4.67953 1.5083 5.26015 1.5083 5.97637V12.4606C1.5083 13.1768 2.08891 13.7574 2.80514 13.7574H13.1798C13.8961 13.7574 14.4767 13.1768 14.4767 12.4606V5.97637C14.4767 5.26015 13.8961 4.67953 13.1798 4.67953Z" stroke="#484848" stroke-width="0.778103" stroke-linecap="round" stroke-linejoin="round"/>
<path d="M10.5858 13.7574V3.38268C10.5858 3.03874 10.4492 2.70889 10.206 2.46568C9.96275 2.22248 9.63289 2.08585 9.28895 2.08585H6.69528C6.35133 2.08585 6.02148 2.22248 5.77827 2.46568C5.53507 2.70889 5.39844 3.03874 5.39844 3.38268V13.7574" stroke="#484848" stroke-width="0.778103" stroke-linecap="round" stroke-linejoin="round"/>
</svg>
